HIERARCHY
ROOT Hips
{
 OFFSET 0.000000 0.000000 0.000000
 CHANNELS 6 Xposition Yposition Zposition Yrotation Xrotation Zrotation
 JOINT Chest
 {
  OFFSET 0.000000 9.581000 -0.001100
  CHANNELS 3 Yrotation Xrotation Zrotation
  JOINT Chest2
  {
   OFFSET 0.000000 9.561100 0.002200
   CHANNELS 3 Yrotation Xrotation Zrotation
   JOINT Chest3
   {
    OFFSET 0.000000 9.521100 0.000000
    CHANNELS 3 Yrotation Xrotation Zrotation
    JOINT Chest4
    {
     OFFSET 0.000000 9.511400 0.000000
     CHANNELS 3 Yrotation Xrotation Zrotation
     JOINT Neck
     {
      OFFSET 0.000000 14.375100 0.000000
      CHANNELS 3 Yrotation Xrotation Zrotation
      JOINT Head
      {
       OFFSET 0.000000 8.901200 0.004600
       CHANNELS 3 Yrotation Xrotation Zrotation
       End Site
       {
        OFFSET 0.000000 16.962200 0.002400
       }
      }
     }
     JOINT RightCollar
     {
      OFFSET -2.920100 9.518800 0.000000
      CHANNELS 3 Yrotation Xrotation Zrotation
      JOINT RightShoulder
      {
       OFFSET -13.664500 0.000000 0.000000
       CHANNELS 3 Yrotation Xrotation Zrotation
       JOINT RightElbow
       {
        OFFSET 0.000000 -29.999200 0.000000
        CHANNELS 3 Yrotation Xrotation Zrotation
        JOINT RightWrist
        {
         OFFSET 0.000000 -24.253600 0.000000
         CHANNELS 3 Yrotation Xrotation Zrotation
         End Site
         {
          OFFSET 0.000000 -17.918900 0.000000
         }
        }
       }
      }
     }
     JOINT LeftCollar
     {
      OFFSET 2.920100 9.518800 0.000000
      CHANNELS 3 Yrotation Xrotation Zrotation
      JOINT LeftShoulder
      {
       OFFSET 13.664500 0.000000 0.000000
       CHANNELS 3 Yrotation Xrotation Zrotation
       JOINT LeftElbow
       {
        OFFSET 0.000000 -29.999200 0.000000
        CHANNELS 3 Yrotation Xrotation Zrotation
        JOINT LeftWrist
        {
         OFFSET 0.000000 -24.253600 0.000000
         CHANNELS 3 Yrotation Xrotation Zrotation
         End Site
         {
          OFFSET 0.000000 -17.918900 0.000000
         }
        }
       }
      }
     }
    }
   }
  }
 }
 JOINT RightHip
 {
  OFFSET -7.797300 0.005300 0.000500
  CHANNELS 3 Yrotation Xrotation Zrotation
  JOINT RightKnee
  {
   OFFSET 0.000000 -40.663400 -0.000500
   CHANNELS 3 Yrotation Xrotation Zrotation
   JOINT RightAnkle
   {
    OFFSET 0.000000 -39.523700 -0.000900
    CHANNELS 3 Yrotation Xrotation Zrotation
    JOINT RightToe
    {
     OFFSET 0.000000 -6.418000 14.485300
     CHANNELS 3 Yrotation Xrotation Zrotation
     End Site
     {
      OFFSET 0.000000 -1.465200 6.326400
     }
    }
   }
  }
 }
 JOINT LeftHip
 {
  OFFSET 7.797300 0.005300 0.000500
  CHANNELS 3 Yrotation Xrotation Zrotation
  JOINT LeftKnee
  {
   OFFSET 0.000000 -40.663400 -0.000500
   CHANNELS 3 Yrotation Xrotation Zrotation
   JOINT LeftAnkle
   {
    OFFSET 0.000000 -39.523700 -0.000900
    CHANNELS 3 Yrotation Xrotation Zrotation
    JOINT LeftToe
    {
     OFFSET 0.000000 -6.418000 14.485300
     CHANNELS 3 Yrotation Xrotation Zrotation
     End Site
     {
      OFFSET 0.000000 -1.465200 6.326400
     }
    }
   }
  }
 }
}
MOTION
Frames: 6
Frame Time: 0.008333
0.000000 86.422400 0.000000 0.000000 -5.767877 0.000000 0.000000 11.653817 0.000000 0.000000 -5.885947 0.000000 0.000000 -0.000000 0.000000 0.000000 -0.000000 0.000000 0.000000 12.528835 0.000000 0.000000 0.711642 0.000000 0.000000 -0.000000 0.000000 0.000000 0.000000 -90.000000 0.000000 -2.309062 0.000000 0.000000 2.309062 0.000000 0.000000 -0.000000 0.000000 0.000000 -0.000000 90.000000 0.000000 -2.309062 0.000000 0.000000 2.309062 0.000000 0.000000 8.520406 0.000000 0.000000 1.905762 0.000000 -0.000000 -4.658285 0.000000 0.000000 -0.000000 0.000000 0.000000 8.520406 0.000000 0.000000 1.905762 0.000000 -0.000000 -4.658285 0.000000 0.000000 -0.000000 0.000000
-22.002185 126.371076 72.508246 -174.042148 -26.392578 -1.615428 -1.252882 23.005687 1.250804 -0.210380 3.328044 0.209014 -0.334396 5.379708 0.332054 -1.086927 19.365038 1.077049 -1.491008 12.626598 -1.769169 -1.154574 -12.421188 -1.507617 2.947396 -6.010789 3.651502 -11.440655 -43.224200 -5.857687 -78.653873 -48.716247 68.566477 -15.991814 10.328968 11.510671 -13.439876 -5.423221 -1.406135 7.488665 -44.407994 8.515335 55.219153 -51.967779 -50.580733 22.487786 -23.141029 -5.809160 -7.340810 -61.159162 6.370809 -43.579808 69.663625 -43.794256 22.784154 36.414852 13.202608 0.031314 -0.025285 0.013869 -6.345466 -49.648150 -9.414306 36.418136 75.593042 26.674521 0.795840 -1.371043 8.606647 0.005861 0.005378 0.002597
-21.999307 126.370049 72.507534 -174.047296 -26.330215 -1.647983 -1.140062 23.056767 1.302244 -0.200273 3.347443 0.213279 -0.317846 5.409280 0.339136 -1.018933 19.410908 1.107555 -1.467458 12.570114 -1.757488 -1.132699 -12.478825 -1.500762 2.903635 -5.838893 3.759395 -12.095001 -43.390490 -5.757358 -79.355215 -49.513712 70.012552 -15.897625 10.414263 12.693391 -13.519852 -5.233255 -1.386333 8.624679 -44.794819 7.882029 53.240044 -54.499718 -49.544583 23.805486 -24.343278 -7.821488 -7.384873 -61.210446 6.410269 -43.428591 69.665793 -43.561839 22.681131 36.492818 13.104023 0.074068 -0.060645 0.032787 -6.376691 -49.703350 -9.385522 36.456086 75.568990 26.733926 0.805101 -1.379971 8.610304 -0.008131 0.017482 -0.003604
-22.000260 126.370818 72.500618 -174.049480 -26.303392 -1.656215 -1.072538 23.108622 1.326442 -0.181067 3.391760 0.222984 -0.300115 5.441169 0.347062 -0.946552 19.459962 1.141142 -1.439110 12.510874 -1.774957 -1.099373 -12.539078 -1.525659 2.879709 -5.700623 3.844435 -12.862665 -43.632592 -5.560436 -79.554420 -50.241395 70.925540 -15.756304 10.412706 13.541898 -13.571748 -5.108791 -1.374504 10.110069 -45.400415 6.986300 50.951699 -55.847292 -48.502742 25.316207 -25.319497 -9.354677 -7.395963 -61.232962 6.420017 -43.352637 69.678832 -43.451058 22.601858 36.491599 13.061322 0.075161 -0.052449 0.033275 -6.384405 -49.726652 -9.400787 36.487985 75.533779 26.790794 0.812521 -1.360395 8.604225 -0.017519 0.012517 -0.007764
-22.001194 126.371748 72.489407 -174.073225 -26.297098 -1.647686 -1.018017 23.196916 1.359803 -0.171458 3.413610 0.228458 -0.284163 5.474516 0.356125 -0.880611 19.510531 1.177629 -1.410066 12.453351 -1.834605 -1.056118 -12.597482 -1.595286 2.912409 -5.607607 3.876523 -13.635955 -43.988652 -5.319269 -79.214068 -50.832892 71.157503 -15.628966 10.315038 13.883277 -13.589860 -5.075144 -1.381972 11.621106 -46.157196 6.006769 48.810971 -55.962294 -47.492764 26.619036 -26.053189 -10.453538 -7.333787 -61.221703 6.353718 -43.247774 69.690348 -43.304323 22.585453 36.440071 13.090640 0.016735 -0.017920 0.007413 -6.374541 -49.730919 -9.425219 36.515530 75.499048 26.843038 0.816352 -1.332247 8.581504 -0.011367 0.002317 -0.005036
-21.997612 126.370162 72.478076 -174.139975 -26.277891 -1.635784 -0.953630 23.297488 1.426107 -0.172344 3.411944 0.229649 -0.271685 5.507659 0.366124 -0.827089 19.560018 1.215821 -1.386614 12.394336 -1.935721 -1.009630 -12.657184 -1.707666 3.018174 -5.563106 3.837615 -14.272406 -44.463678 -5.132391 -78.392909 -51.224762 70.632192 -15.581320 10.121785 13.694410 -13.582281 -5.141727 -1.407828 12.631735 -46.934746 5.276414 47.324867 -55.151595 -46.554150 27.177931 -26.184408 -10.900455 -7.260059 -61.182575 6.271824 -42.884132 69.726611 -42.866468 22.589934 36.403016 13.070461 -0.010401 0.007932 -0.004609 -6.346456 -49.747959 -9.409378 36.469734 75.483536 26.822078 0.830517 -1.313655 8.558339 -0.005382 -0.003401 -0.002385
